<?xml version="1.0" standalone="no"?>
<!DOCTYPE svg PUBLIC "-//W3C//DTD SVG 20010904//EN"
 "http://www.w3.org/TR/2001/REC-SVG-20010904/DTD/svg10.dtd">
<svg version="1.0" xmlns="http://www.w3.org/2000/svg"
 width="640.000000pt" height="640.000000pt" viewBox="0 0 640.000000 640.000000"
 preserveAspectRatio="xMidYMid meet">
<metadata>
Created by potrace 1.14, written by Peter Selinger 2001-2017
</metadata>
<g transform="translate(0.000000,640.000000) scale(0.100000,-0.100000)"
fill="#000000" stroke="none">
<path d="M2791 6300 c-136 -18 -269 -44 -391 -77 -70 -18 -212 -64 -225 -72
-5 -3 -16 -6 -23 -7 -33 -5 -238 -93 -352 -150 -430 -216 -831 -555 -1112
-939 -316 -431 -525 -960 -584 -1475 -23 -203 -24 -571 0 -755 82 -660 390
-1306 849 -1781 508 -526 1158 -852 1877 -941 165 -20 581 -23 715 -4 587 81
1041 257 1484 574 694 497 1162 1287 1273 2147 19 154 17 638 -5 801 -80 599
-348 1185 -756 1652 -104 118 -262 270 -366 353 -27 21 -52 41 -55 44 -15 15
-90 70 -95 70 -4 0 -13 6 -21 14 -8 8 -67 48 -132 89 -397 252 -842 408 -1312
462 -191 21 -580 19 -769 -5z m492 -1296 c58 -20 119 -86 137 -149 12 -42 10
-122 -4 -155 -4 -10 130 -151 442 -463 l447 -447 45 22 c69 35 162 32 226 -7
30 -19 60 -49 79 -79 26 -43 30 -59 30 -120 0 -59 -5 -79 -27 -117 -53 -89
-157 -133 -259 -109 -95 23 -179 129 -179 227 0 37 26 110 49 136 14 17 -15
48 -431 464 l-447 447 -33 -33 c-45 -44 -92 -63 -158 -64 -65 0 -123 22 -166
64 l-31 30 -443 -442 -443 -443 23 -40 c32 -55 39 -159 15 -207 -52 -103 -113
-143 -215 -142 -135 0 -233 97 -232 228 1 177 183 286 341 205 l37 -19 448
448 447 447 -8 54 c-16 99 10 173 79 229 62 50 148 63 231 35z m657 -1900 c0
-16 -12 -37 -30 -54 l-30 -28 0 -276 c0 -285 4 -320 42 -331 12 -4 18 -16 18
-37 0 -30 -1 -30 -37 -23 -84 15 -166 86 -210 181 -44 96 -49 277 -12 383 32
90 116 174 197 196 64 18 62 18 62 -11z m129 -1 c84 -34 150 -113 176 -210 24
-89 22 -243 -5 -324 -36 -108 -128 -197 -222 -214 -36 -7 -38 -6 -38 18 0 15
13 38 30 56 l31 30 -3 287 -3 286 -27 22 c-18 14 -28 31 -28 49 0 25 3 27 28
21 15 -4 43 -13 61 -21z m-2229 -18 c0 -18 -7 -28 -25 -35 l-25 -10 0 -340 0
-340 -127 0 c-151 0 -173 5 -173 34 0 12 9 25 23 31 l22 10 3 303 2 302 -25
12 c-16 7 -25 19 -25 35 l0 23 175 0 175 0 0 -25z m748 -22 c18 -87 80 -356
112 -488 27 -111 36 -134 61 -155 21 -19 26 -29 19 -40 -7 -12 -38 -16 -146
-18 -163 -4 -204 1 -204 27 0 10 10 25 22 33 l23 15 -24 114 c-12 63 -36 168
-51 234 -56 233 -63 272 -56 298 l6 27 114 0 113 0 11 -47z m590 -325 l-3
-373 -137 -3 c-112 -2 -139 0 -152 13 -20 20 -10 43 20 51 l24 6 0 304 0 303
-30 16 c-33 17 -33 17 -24 39 5 14 29 16 155 16 l149 0 -2 -372z m267 342 c52
-32 71 -55 85 -104 25 -90 -31 -181 -128 -210 l-47 -13 41 -12 c100 -27 145
-85 146 -186 0 -59 -3 -71 -29 -103 -43 -55 -103 -80 -205 -88 l-88 -7 0 31
c0 25 5 33 25 38 39 10 55 52 55 143 0 98 -11 129 -50 144 -23 9 -30 18 -30
38 0 21 7 29 30 38 40 13 50 44 47 142 -2 71 -5 84 -26 100 -13 11 -29 19 -37
19 -9 0 -14 11 -14 31 l0 32 94 -5 c75 -4 102 -10 131 -28z m1305 -306 l0
-335 35 -15 c37 -15 40 -20 25 -44 -7 -12 -36 -16 -131 -18 -157 -5 -209 3
-209 28 0 11 13 26 30 35 17 9 30 21 30 28 0 6 1 107 4 222 2 116 1 244 -2
285 -6 64 -10 75 -27 78 -33 7 -46 22 -35 43 11 19 42 24 198 27 l82 2 0 -336z
m-2411 98 c1 -13 -22 -107 -50 -208 -29 -107 -48 -192 -44 -204 4 -11 20 -27
36 -35 35 -19 38 -50 7 -59 -30 -7 -146 -7 -175 0 -33 9 -31 50 1 58 50 12 60
38 162 416 40 147 36 140 50 95 7 -22 13 -51 13 -63z m-309 -252 c10 -6 15
-35 18 -109 2 -55 1 -112 -2 -126 -6 -25 -7 -25 -111 -25 l-105 0 0 30 c0 26
6 32 39 46 44 18 86 71 102 130 17 60 30 72 59 54z m-332 -1118 c3 -9 -3 -13
-18 -10 -32 4 -36 -16 -5 -30 33 -15 33 -49 0 -62 -26 -10 -55 -4 -55 11 0 5
11 9 25 9 14 0 25 5 25 10 0 6 -11 15 -25 20 -29 11 -33 44 -7 59 22 14 54 10
60 -7z m507 3 c0 -5 -10 -11 -22 -13 -30 -4 -29 -16 2 -30 48 -22 15 -83 -35
-67 -28 9 -25 25 5 25 14 0 25 4 25 8 0 5 -11 14 -25 20 -30 14 -35 58 -7 65
26 8 57 3 57 -8z m175 5 c0 -5 -4 -10 -10 -10 -5 0 -10 -4 -10 -10 0 -5 7 -10
15 -10 8 0 15 5 15 10 0 6 7 10 15 10 8 0 15 -4 15 -10 0 -5 11 -10 25 -10 18
0 25 -5 25 -19 0 -11 5 -23 10 -26 6 -4 10 5 10 19 0 32 29 35 38 4 l5 -22 8
22 c5 12 13 22 20 22 6 0 8 -7 5 -16 -3 -9 -9 -27 -12 -40 -8 -30 -28 -31 -42
-1 l-11 22 0 -22 c-1 -39 -38 -29 -45 12 -5 24 -11 33 -21 28 -18 -6 -19 -34
-2 -52 10 -10 7 -12 -13 -9 -19 2 -26 10 -28 31 -5 38 -32 36 -32 -3 0 -19 -5
-30 -14 -30 -18 0 -27 67 -13 98 10 22 47 32 47 12z m560 -7 c0 -7 -9 -13 -20
-13 -11 0 -20 -4 -20 -10 0 -5 9 -10 20 -10 11 0 20 -4 20 -9 0 -5 -9 -11 -20
-14 -26 -7 -26 -27 -1 -27 11 0 23 -4 26 -10 4 -6 -10 -10 -34 -10 l-41 0 0
53 c0 30 2 56 5 59 11 10 65 3 65 -9z m250 7 c0 -5 -7 -10 -15 -10 -8 0 -15 5
-15 10 0 6 7 10 15 10 8 0 15 -4 15 -10z m390 0 c0 -5 -7 -10 -15 -10 -8 0
-15 5 -15 10 0 6 7 10 15 10 8 0 15 -4 15 -10z m290 -39 c0 -44 2 -49 25 -53
18 -4 26 0 30 13 4 11 16 20 28 20 22 2 22 2 0 6 -24 5 -32 22 -10 24 41 4 57
-10 57 -53 l0 -27 -81 0 c-69 0 -80 2 -75 15 3 9 6 36 6 60 0 24 5 44 10 44 6
0 10 -22 10 -49z m170 22 c0 -20 3 -24 12 -15 19 19 48 -4 48 -38 0 -33 -21
-49 -55 -42 -21 4 -24 10 -27 63 -2 42 1 59 10 59 6 0 12 -12 12 -27z m-1981
-4 c7 -12 9 -24 4 -28 -10 -7 -10 -18 2 -44 9 -22 3 -29 -19 -21 -9 4 -16 17
-16 33 0 15 -3 31 -6 34 -13 13 -44 -14 -44 -38 0 -14 -4 -25 -10 -25 -5 0
-10 18 -10 40 0 38 2 40 30 40 18 0 33 6 36 15 8 21 17 19 33 -6z m2352 -1 c4
-38 4 -84 2 -90 -8 -18 -33 7 -33 32 0 16 -4 32 -10 35 -6 4 -5 11 3 20 15 18
37 19 38 3z m-2471 -54 c0 -32 -2 -34 -34 -34 -19 0 -37 4 -40 9 -11 16 6 41
28 42 20 2 20 2 -1 6 -13 2 -23 8 -23 13 0 13 43 18 58 7 6 -5 12 -25 12 -43z
m1530 16 c0 -15 -7 -20 -26 -20 -14 0 -23 -4 -19 -10 3 -5 12 -7 19 -4 8 3 17
1 20 -4 8 -14 -25 -21 -52 -11 -34 13 -28 69 8 81 22 8 50 -10 50 -32z m310
-15 c0 -26 -6 -50 -16 -59 -17 -18 -64 -22 -64 -6 0 6 11 10 25 10 14 0 25 5
25 11 0 6 -7 9 -15 5 -18 -7 -45 19 -45 44 0 30 25 47 59 42 29 -4 31 -7 31
-47z m735 5 c0 -42 -33 -58 -66 -31 -17 13 -20 24 -16 44 8 28 30 37 62 27 15
-5 20 -16 20 -40z m-2667 -2 c2 -29 0 -38 -12 -38 -11 0 -16 9 -16 30 0 17 -4
30 -10 30 -5 0 -10 -13 -10 -30 0 -20 -5 -30 -15 -30 -10 0 -15 10 -15 31 0
38 -24 35 -28 -4 -5 -42 -22 -32 -22 13 l0 41 63 -3 62 -3 3 -37z m457 22 c14
-43 -8 -67 -55 -60 -29 4 -43 63 -17 73 31 13 66 6 72 -13z m343 -26 l3 -40
-36 4 c-26 3 -35 9 -35 23 0 11 10 24 23 29 16 6 17 9 5 9 -9 1 -20 6 -23 12
-5 7 5 9 26 7 32 -3 34 -6 37 -44z m82 36 c0 -5 -7 -10 -15 -10 -10 0 -15 -10
-15 -30 0 -20 -5 -30 -15 -30 -11 0 -15 11 -15 40 0 38 2 40 30 40 17 0 30 -4
30 -10z m78 -17 c3 -19 -1 -23 -23 -23 -16 0 -24 -4 -20 -11 4 -6 13 -8 21 -5
8 3 14 1 14 -3 0 -12 -21 -19 -43 -13 -22 6 -33 48 -16 68 19 23 63 14 67 -13z
m230 -15 c3 -30 0 -38 -14 -38 -11 0 -15 6 -11 19 2 10 1 25 -4 32 -8 12 -11
11 -19 -1 -6 -8 -8 -23 -6 -32 2 -11 -2 -18 -10 -18 -10 0 -14 12 -14 41 l0
40 38 -3 c35 -3 37 -5 40 -40z m102 -6 c0 -26 -5 -53 -12 -60 -14 -14 -68 -16
-68 -2 0 6 11 10 25 10 14 0 25 5 25 11 0 6 -7 9 -15 5 -19 -7 -48 22 -41 41
3 8 6 21 6 29 0 10 12 14 40 14 l40 0 0 -48z m48 11 c-4 -52 -28 -56 -28 -4 0
30 4 41 16 41 11 0 14 -9 12 -37z m100 -5 c2 -29 0 -38 -12 -38 -11 0 -16 9
-16 30 0 20 -5 30 -15 30 -10 0 -15 -10 -15 -30 0 -16 -4 -30 -10 -30 -5 0
-10 18 -10 41 l0 40 38 -3 c35 -3 37 -5 40 -40z m90 15 c3 -19 -1 -23 -23 -23
-16 0 -24 -4 -20 -11 4 -6 13 -8 21 -5 7 3 16 1 19 -3 7 -12 -19 -21 -44 -14
-24 6 -35 34 -26 64 10 30 69 23 73 -8z m162 18 c0 -5 -7 -11 -15 -15 -8 -3
-15 -17 -15 -32 0 -16 -5 -24 -12 -22 -7 3 -13 21 -13 41 0 34 2 37 28 37 15
0 27 -4 27 -9z m40 -31 c0 -29 -4 -40 -15 -40 -11 0 -15 11 -15 40 0 29 4 40
15 40 11 0 15 -11 15 -40z m94 24 c11 -29 7 -64 -9 -64 -10 0 -15 10 -15 31 0
38 -24 34 -28 -5 -2 -15 -8 -26 -13 -24 -6 2 -10 7 -10 11 1 4 1 21 1 37 0 27
3 30 34 30 22 0 36 -6 40 -16z m524 -22 c3 -26 -1 -34 -19 -41 -34 -12 -56 -3
-64 26 -8 34 11 55 49 51 27 -3 31 -7 34 -36z m70 24 c-10 -7 -18 -25 -18 -40
0 -16 -5 -26 -15 -26 -11 0 -15 11 -15 40 0 39 1 40 33 40 29 -1 30 -2 15 -14z
m82 -25 c0 -41 -14 -52 -53 -43 -26 7 -18 46 11 50 12 2 20 7 17 12 -3 5 -12
7 -20 3 -8 -3 -15 0 -15 6 0 6 14 11 30 11 28 0 30 -2 30 -39z m277 19 c3 -11
9 -20 14 -20 5 0 9 9 9 20 0 11 7 20 16 20 11 0 14 -6 8 -22 -16 -52 -36 -89
-50 -95 -20 -7 -32 6 -14 17 11 7 12 15 1 49 -11 37 -14 40 -32 30 -12 -6 -19
-18 -17 -31 2 -12 -3 -23 -9 -25 -9 -3 -13 8 -13 36 l0 41 41 0 c32 0 42 -4
46 -20z m-1827 -210 c0 -5 -9 -10 -20 -10 -11 0 -20 -7 -20 -15 0 -8 9 -15 20
-15 11 0 20 -4 20 -10 0 -5 -9 -10 -20 -10 -11 0 -20 -7 -20 -15 0 -8 9 -15
20 -15 11 0 20 -4 20 -10 0 -5 -16 -10 -35 -10 l-35 0 0 60 0 60 35 0 c19 0
35 -4 35 -10z m100 -6 c0 -8 -4 -12 -10 -9 -15 10 -50 -14 -50 -34 0 -22 23
-43 42 -39 7 2 16 -1 18 -7 8 -16 -55 -18 -69 -1 -19 23 -17 77 4 92 26 19 65
18 65 -2z m75 -21 c26 -42 32 -41 27 2 -3 27 -1 35 12 35 13 0 16 -12 16 -60
0 -72 -16 -79 -52 -22 l-23 37 -3 -38 c-5 -59 -27 -40 -30 27 -3 51 -1 57 15
54 10 -2 27 -18 38 -35z m107 -10 c2 -35 7 -48 18 -48 11 0 16 13 18 48 2 33
7 47 18 47 10 0 14 -13 14 -48 0 -55 -12 -72 -52 -72 -21 0 -31 6 -38 26 -11
29 -13 78 -3 87 15 16 22 4 25 -40z m343 37 c4 -6 -5 -10 -19 -10 -33 0 -33
-13 -1 -34 33 -22 33 -54 0 -62 -27 -7 -55 0 -55 14 0 5 11 7 25 4 14 -2 25 0
25 6 0 5 -11 17 -25 26 -26 17 -34 51 -12 59 21 9 56 7 62 -3z m92 -2 c-2 -7
-11 -12 -20 -10 -24 4 -32 -19 -8 -25 24 -6 28 -23 6 -23 -8 0 -15 -7 -15 -15
0 -8 9 -15 20 -15 11 0 20 -4 20 -10 0 -5 -16 -10 -35 -10 l-35 0 0 60 0 60
36 0 c24 0 34 -4 31 -12z m57 -5 c-5 -10 -8 -37 -7 -60 0 -34 -3 -43 -16 -43
-13 0 -16 11 -16 60 0 56 1 60 23 60 19 0 23 -3 16 -17z"/>
<path d="M3955 1430 c-3 -5 -1 -10 4 -10 6 0 11 5 11 10 0 6 -2 10 -4 10 -3 0
-8 -4 -11 -10z"/>
<path d="M4047 1454 c-14 -14 -7 -35 11 -32 9 2 17 10 17 17 0 16 -18 25 -28
15z"/>
<path d="M1895 1431 c-3 -5 -1 -12 5 -16 5 -3 10 1 10 9 0 18 -6 21 -15 7z"/>
<path d="M3425 1460 c-3 -5 1 -10 10 -10 9 0 13 5 10 10 -3 6 -8 10 -10 10 -2
0 -7 -4 -10 -10z"/>
<path d="M3720 1440 c0 -11 7 -20 15 -20 8 0 15 9 15 20 0 11 -7 20 -15 20 -8
0 -15 -9 -15 -20z"/>
<path d="M4460 1440 c0 -15 5 -20 18 -18 9 2 17 10 17 18 0 8 -8 16 -17 18
-13 2 -18 -3 -18 -18z"/>
<path d="M2252 1458 c-13 -13 -4 -38 14 -38 15 0 19 35 6 44 -5 3 -14 0 -20
-6z"/>
<path d="M2606 1431 c-4 -5 -2 -12 3 -15 5 -4 12 -2 15 3 4 5 2 12 -3 15 -5 4
-12 2 -15 -3z"/>
<path d="M2768 1453 c7 -3 16 -2 19 1 4 3 -2 6 -13 5 -11 0 -14 -3 -6 -6z"/>
<path d="M3080 1440 c0 -11 7 -20 15 -20 8 0 15 9 15 20 0 11 -7 20 -15 20 -8
0 -15 -9 -15 -20z"/>
<path d="M3338 1453 c7 -3 16 -2 19 1 4 3 -2 6 -13 5 -11 0 -14 -3 -6 -6z"/>
<path d="M4140 1440 c0 -15 5 -20 18 -18 9 2 17 10 17 18 0 8 -8 16 -17 18
-13 2 -18 -3 -18 -18z"/>
<path d="M4310 1430 c0 -5 5 -10 11 -10 5 0 7 5 4 10 -3 6 -8 10 -11 10 -2 0
-4 -4 -4 -10z"/>
</g>
</svg>
